{
    "asset" : {
        "generator" : "Khronos glTF Blender I/O v3.3.0",
        "version" : "2.0"
    },
    "scene" : 0,
    "scenes" : [
        {
            "name" : "Scene",
            "nodes" : [
                0,
                1
            ]
        }
    ],
    "nodes" : [
        {
            "mesh" : 0,
            "name" : "Cube",
            "translation" : [
                0,
                0.6948148608207703,
                0
            ]
        },
        {
            "mesh" : 1,
            "name" : "Sphere",
            "rotation" : [
                -0.05968284606933594,
                -0.034643691033124924,
                0.1245679259300232,
                0.9898083806037903
            ],
            "scale" : [
                0.6674683690071106,
                0.6674683094024658,
                0.6674683094024658
            ],
            "translation" : [
                -0.5741591453552246,
                1.652471661567688,
                0.5592952966690063
            ]
        }
    ],
    "materials" : [
        {
            "doubleSided" : true,
            "name" : "Material",
            "pbrMetallicRoughness" : {
                "baseColorFactor" : [
                    0.0928526520729065,
                    0.0928526520729065,
                    0.0928526520729065,
                    1
                ],
                "metallicFactor" : 0,
                "roughnessFactor" : 0.11636362969875336
            }
        },
        {
            "doubleSided" : true,
            "name" : "Material.001",
            "pbrMetallicRoughness" : {
                "baseColorFactor" : [
                    0.860171914100647,
                    0.7670134902000427,
                    0,
                    1
                ],
                "roughnessFactor" : 0.31049561500549316
            }
        }
    ],
    "meshes" : [
        {
            "name" : "Cube",
            "primitives" : [
                {
                    "attributes" : {
                        "POSITION" : 0,
                        "NORMAL" : 1,
                        "TEXCOORD_0" : 2
                    },
                    "indices" : 3,
                    "material" : 0
                }
            ]
        },
        {
            "name" : "Sphere",
            "primitives" : [
                {
                    "attributes" : {
                        "POSITION" : 4,
                        "NORMAL" : 5,
                        "TEXCOORD_0" : 6
                    },
                    "indices" : 7,
                    "material" : 1
                }
            ]
        }
    ],
    "accessors" : [
        {
            "bufferView" : 0,
            "componentType" : 5126,
            "count" : 494,
            "max" : [
                2.212529182434082,
                1.2788670063018799,
                1.5495476722717285
            ],
            "min" : [
                -2.274825096130371,
                -0.6861965656280518,
                -1.5543744564056396
            ],
            "type" : "VEC3"
        },
        {
            "bufferView" : 1,
            "componentType" : 5126,
            "count" : 494,
            "type" : "VEC3"
        },
        {
            "bufferView" : 2,
            "componentType" : 5126,
            "count" : 494,
            "type" : "VEC2"
        },
        {
            "bufferView" : 3,
            "componentType" : 5123,
            "count" : 2148,
            "type" : "SCALAR"
        },
        {
            "bufferView" : 4,
            "componentType" : 5126,
            "count" : 2375,
            "max" : [
                0.9872310161590576,
                1.9861750602722168,
                0.9872307181358337
            ],
            "min" : [
                -0.9872304201126099,
                -0.9975767135620117,
                -0.9872304201126099
            ],
            "type" : "VEC3"
        },
        {
            "bufferView" : 5,
            "componentType" : 5126,
            "count" : 2375,
            "type" : "VEC3"
        },
        {
            "bufferView" : 6,
            "componentType" : 5126,
            "count" : 2375,
            "type" : "VEC2"
        },
        {
            "bufferView" : 7,
            "componentType" : 5123,
            "count" : 11904,
            "type" : "SCALAR"
        }
    ],
    "bufferViews" : [
        {
            "buffer" : 0,
            "byteLength" : 5928,
            "byteOffset" : 0
        },
        {
            "buffer" : 0,
            "byteLength" : 5928,
            "byteOffset" : 5928
        },
        {
            "buffer" : 0,
            "byteLength" : 3952,
            "byteOffset" : 11856
        },
        {
            "buffer" : 0,
            "byteLength" : 4296,
            "byteOffset" : 15808
        },
        {
            "buffer" : 0,
            "byteLength" : 28500,
            "byteOffset" : 20104
        },
        {
            "buffer" : 0,
            "byteLength" : 28500,
            "byteOffset" : 48604
        },
        {
            "buffer" : 0,
            "byteLength" : 19000,
            "byteOffset" : 77104
        },
        {
            "buffer" : 0,
            "byteLength" : 23808,
            "byteOffset" : 96104
        }
    ],
    "buffers" : [
        {
            "byteLength" : 119912,
            "uri" : "data:application/octet-stream;base64,"
        }
    ]
}
